<svg xmlns="http://www.w3.org/2000/svg" viewBox="0 0 180 180">
  <!-- Black background for Apple touch icon (required for visibility) -->
  <rect width="180" height="180" rx="24" fill="#000000"/>
  
  <!-- Glow filter -->
  <defs>
    <filter id="glow-apple" x="-50%" y="-50%" width="200%" height="200%">
      <feGaussianBlur stdDeviation="2" result="coloredBlur"/>
      <feMerge>
        <feMergeNode in="coloredBlur"/>
        <feMergeNode in="SourceGraphic"/>
      </feMerge>
    </filter>
  </defs>
  
  <g filter="url(#glow-apple)">
    <!-- Lock shackle (arc) -->
    <path d="M56 73 L56 51 Q56 17 90 17 Q124 17 124 51 L124 73" 
          fill="none" stroke="white" stroke-width="11" stroke-linecap="round"/>
    
    <!-- House roof peak -->
    <path d="M39 84 L90 50 L141 84" fill="none" stroke="white" stroke-width="7" stroke-linejoin="round"/>
    
    <!-- House body outline -->
    <path d="M39 84 L39 157 L141 157 L141 84" fill="none" stroke="white" stroke-width="6"/>
    
    <!-- Circuit board pattern inside house -->
    <g fill="none" stroke="white" stroke-width="1.5" opacity="0.9">
      <!-- Left side circuits -->
      <path d="M51 101 L62 101 L62 93"/>
      <path d="M51 118 L58 118 L58 110"/>
      <path d="M51 135 L55 135 L55 127"/>
      <path d="M51 152 L65 152 L65 144"/>
      
      <!-- Right side circuits -->
      <path d="M129 101 L118 101 L118 93"/>
      <path d="M129 118 L122 118 L122 110"/>
      <path d="M129 135 L125 135 L125 127"/>
      <path d="M129 152 L115 152 L115 144"/>
      
      <!-- Top circuits -->
      <path d="M73 93 L73 101"/>
      <path d="M82 89 L82 98"/>
      <path d="M98 89 L98 98"/>
      <path d="M107 93 L107 101"/>
      
      <!-- Circuit dots/nodes -->
      <circle cx="62" cy="101" r="3" fill="white"/>
      <circle cx="58" cy="118" r="3" fill="white"/>
      <circle cx="55" cy="135" r="3" fill="white"/>
      <circle cx="65" cy="152" r="3" fill="white"/>
      <circle cx="118" cy="101" r="3" fill="white"/>
      <circle cx="122" cy="118" r="3" fill="white"/>
      <circle cx="125" cy="135" r="3" fill="white"/>
      <circle cx="115" cy="152" r="3" fill="white"/>
      <circle cx="73" cy="101" r="3" fill="white"/>
      <circle cx="82" cy="98" r="3" fill="white"/>
      <circle cx="98" cy="98" r="3" fill="white"/>
      <circle cx="107" cy="101" r="3" fill="white"/>
    </g>
    
    <!-- Keyhole outline -->
    <ellipse cx="90" cy="112" rx="11" ry="14" fill="none" stroke="white" stroke-width="3"/>
    <path d="M82 120 L82 143 L98 143 L98 120" fill="none" stroke="white" stroke-width="3"/>
  </g>
</svg>
