<svg xmlns="http://www.w3.org/2000/svg" viewBox="0 0 512 512">
  <!-- Solid warm background for maskable icon -->
  <rect width="512" height="512" fill="#CD853F"/>
  
  <!-- Sky background (in safe zone) -->
  <rect x="80" y="80" width="352" height="140" rx="20" fill="#87CEEB"/>
  
  <!-- Sun -->
  <circle cx="380" cy="130" r="35" fill="#FFD700" opacity="0.9"/>
  
  <!-- Cabin roof (A-frame) - in safe zone -->
  <polygon points="256,130 100,220 412,220" fill="#5D3A1A"/>
  <polygon points="256,145 120,220 392,220" fill="#704214"/>
  
  <!-- Cabin body with log texture -->
  <rect x="120" y="220" width="272" height="200" fill="#CD853F"/>
  
  <!-- Horizontal log lines -->
  <line x1="120" y1="255" x2="392" y2="255" stroke="#8B4513" stroke-width="4"/>
  <line x1="120" y1="290" x2="392" y2="290" stroke="#8B4513" stroke-width="4"/>
  <line x1="120" y1="325" x2="392" y2="325" stroke="#8B4513" stroke-width="4"/>
  <line x1="120" y1="360" x2="392" y2="360" stroke="#8B4513" stroke-width="4"/>
  <line x1="120" y1="395" x2="392" y2="395" stroke="#8B4513" stroke-width="4"/>
  
  <!-- Door -->
  <rect x="216" y="300" width="80" height="120" rx="6" fill="#5D3A1A"/>
  <circle cx="280" cy="360" r="8" fill="#FFD700"/>
  
  <!-- Window left -->
  <rect x="140" y="245" width="55" height="55" rx="4" fill="#87CEEB" stroke="#5D3A1A" stroke-width="5"/>
  <line x1="167.5" y1="245" x2="167.5" y2="300" stroke="#5D3A1A" stroke-width="3"/>
  <line x1="140" y1="272.5" x2="195" y2="272.5" stroke="#5D3A1A" stroke-width="3"/>
  
  <!-- Window right -->
  <rect x="317" y="245" width="55" height="55" rx="4" fill="#87CEEB" stroke="#5D3A1A" stroke-width="5"/>
  <line x1="344.5" y1="245" x2="344.5" y2="300" stroke="#5D3A1A" stroke-width="3"/>
  <line x1="317" y1="272.5" x2="372" y2="272.5" stroke="#5D3A1A" stroke-width="3"/>
  
  <!-- Chimney -->
  <rect x="320" y="110" width="40" height="70" fill="#8B4513"/>
  <rect x="315" y="102" width="50" height="16" fill="#5D3A1A"/>
</svg>
